<?xml version="1.0" encoding="utf-8"?>
<!-- Generator: Adobe Illustrator 27.2.0, SVG Export Plug-In . SVG Version: 6.00 Build 0)  -->
<svg version="1.1" id="Layer_1" xmlns="http://www.w3.org/2000/svg" xmlns:xlink="http://www.w3.org/1999/xlink" x="0px" y="0px"
	 viewBox="0 0 455.9 83" style="enable-background:new 0 0 455.9 83;" xml:space="preserve">
<style type="text/css">
	.st0{fill:#F16154;}
	.st1{fill:none;}
</style>
<polygon class="st0" points="42.8,2.3 55.5,28.1 84,32.3 63.4,52.3 68.2,80.7 42.8,67.3 17.3,80.7 22.2,52.3 1.6,32.3 30.1,28.1 "/>
<polygon class="st0" points="135.4,2.3 148.1,28.1 176.6,32.3 156,52.3 160.8,80.7 135.4,67.3 109.9,80.7 114.8,52.3 94.2,32.3 
	122.6,28.1 "/>
<polygon class="st0" points="228,2.3 240.7,28.1 269.2,32.3 248.6,52.3 253.4,80.7 228,67.3 202.5,80.7 207.4,52.3 186.8,32.3 
	215.2,28.1 "/>
<polygon class="st0" points="320.6,2.3 333.3,28.1 361.8,32.3 341.2,52.3 346,80.7 320.6,67.3 295.1,80.7 300,52.3 279.4,32.3 
	307.8,28.1 "/>
<g>
	<polygon class="st1" points="411.8,2.3 424.5,28.1 453,32.3 432.4,52.3 437.2,80.7 411.8,67.3 386.3,80.7 391.2,52.3 370.6,32.3 
		399,28.1 	"/>
	<path class="st0" d="M437.2,82.7c-0.3,0-0.6-0.1-0.9-0.2l-24.5-12.9l-24.6,12.9c-0.7,0.4-1.5,0.3-2.1-0.2c-0.6-0.4-0.9-1.2-0.8-2
		L389,53l-19.8-19.3c-0.5-0.5-0.7-1.3-0.5-2c0.2-0.7,0.9-1.3,1.6-1.4l27.4-4L410,1.4c0.3-0.7,1-1.1,1.8-1.1c0,0,0,0,0,0
		c0.8,0,1.5,0.4,1.8,1.1l12.2,24.9l27.5,4c0.8,0.1,1.4,0.6,1.6,1.4s0,1.5-0.5,2L434.5,53l4.6,27.4c0.1,0.8-0.2,1.5-0.8,2
		C438,82.6,437.6,82.7,437.2,82.7z M411.8,65.3c0.3,0,0.6,0.1,0.9,0.2L434.6,77l-4.1-24.4c-0.1-0.6,0.1-1.3,0.6-1.8l17.7-17.2
		l-24.5-3.6c-0.7-0.1-1.2-0.5-1.5-1.1L411.8,6.8l-11,22.2c-0.3,0.6-0.9,1-1.5,1.1l-24.4,3.6l17.7,17.2c0.5,0.5,0.7,1.1,0.6,1.8
		L389,77l21.9-11.5C411.2,65.4,411.5,65.3,411.8,65.3z"/>
</g>
</svg>
