<?xml version="1.0" encoding="utf-8"?>
<!-- Generator: Adobe Illustrator 27.2.0, SVG Export Plug-In . SVG Version: 6.00 Build 0)  -->
<svg version="1.1" id="Layer_1" xmlns="http://www.w3.org/2000/svg" xmlns:xlink="http://www.w3.org/1999/xlink" x="0px" y="0px"
	 viewBox="0 0 455.9 83" style="enable-background:new 0 0 455.9 83;" xml:space="preserve">
<style type="text/css">
	.st0{fill:#F16154;}
</style>
<polygon class="st0" points="42.8,2.3 55.5,28.1 84,32.3 63.4,52.3 68.2,80.7 42.8,67.3 17.3,80.7 22.2,52.3 1.6,32.3 30.1,28.1 "/>
<polygon class="st0" points="135.4,2.3 148.1,28.1 176.6,32.3 156,52.3 160.8,80.7 135.4,67.3 109.9,80.7 114.8,52.3 94.2,32.3 
	122.6,28.1 "/>
<polygon class="st0" points="228,2.3 240.7,28.1 269.2,32.3 248.6,52.3 253.4,80.7 228,67.3 202.5,80.7 207.4,52.3 186.8,32.3 
	215.2,28.1 "/>
<polygon class="st0" points="320.6,2.3 333.3,28.1 361.8,32.3 341.2,52.3 346,80.7 320.6,67.3 295.1,80.7 300,52.3 279.4,32.3 
	307.8,28.1 "/>
<polygon class="st0" points="413.2,2.3 425.9,28.1 454.4,32.3 433.8,52.3 438.6,80.7 413.2,67.3 387.7,80.7 392.6,52.3 372,32.3 
	400.4,28.1 "/>
</svg>
