<?xml version="1.0" encoding="utf-8"?>
<!-- Generator: Adobe Illustrator 27.2.0, SVG Export Plug-In . SVG Version: 6.00 Build 0)  -->
<svg version="1.1" id="Layer_1" xmlns="http://www.w3.org/2000/svg" xmlns:xlink="http://www.w3.org/1999/xlink" x="0px" y="0px"
	 viewBox="0 0 99.7 83" style="enable-background:new 0 0 99.7 83;" xml:space="preserve">
<path d="M24.1,34.4c0.1,0.1,0.1,0.1,0.1,0.2c-0.1,0-0.1,0-0.2-0.1C24.1,34.5,24.1,34.5,24.1,34.4z"/>
<g>
	<path image-rendering="auto" color-rendering="auto" shape-rendering="auto" d="M49.8,15.1c-14.5,0-26.4,11.8-26.4,26.4
		s11.8,26.4,26.4,26.4s26.4-11.8,26.4-26.4S64.4,15.1,49.8,15.1z M49.8,19.1c12.4,0,22.4,10,22.4,22.4s-10,22.4-22.4,22.4
		s-22.4-10-22.4-22.4C27.4,29.1,37.4,19.1,49.8,19.1z"/>
	<path d="M60.7,28.8c-0.6-0.6-1.5-0.6-2,0L51,36.4l-6.3,6.3l-7.6,7.6c-0.6,0.6-0.6,1.5,0,2l1.8,1.8c0.6,0.6,1.5,0.6,2,0l7.6-7.6
		l6.3-6.3l7.6-7.6c0.6-0.6,0.6-1.5,0-2L60.7,28.8z"/>
	<path d="M37.2,30.6c-0.6,0.6-0.6,1.5,0,2l7.6,7.6l6.3,6.3l7.6,7.6c0.6,0.6,1.5,0.6,2,0l1.8-1.8c0.6-0.6,0.6-1.5,0-2l-7.7-7.6
		l-6.3-6.3L41,28.8c-0.6-0.6-1.5-0.6-2,0L37.2,30.6z"/>
</g>
</svg>
