<?xml version="1.0" encoding="utf-8"?>
<!-- Generator: Adobe Illustrator 27.2.0, SVG Export Plug-In . SVG Version: 6.00 Build 0)  -->
<svg version="1.1" id="Layer_1" xmlns="http://www.w3.org/2000/svg" xmlns:xlink="http://www.w3.org/1999/xlink" x="0px" y="0px"
	 viewBox="0 0 99.7 83" style="enable-background:new 0 0 99.7 83;" xml:space="preserve">
<style type="text/css">
	.st0{fill:#DDC193;}
</style>
<path d="M9.7,30.4C6.9,27.1,5,23.5,4.5,19.2c-0.6-4.5,0.1-8.8,2.3-12.8c0.8-1.5,1.5-1.5,2.6-0.2c7.6,9,17.1,15.1,28.6,17.9
	c2.5,0.6,5,0.9,7.5,1.4c0.9,0.1,1.3-0.2,1.3-1.3c-0.5-8.6,2.7-15.4,10.2-19.8C64.3,0.1,73.5,0.9,80,6.1c1.6,1.3,3.1,1.6,4.9,0.9
	c2.7-1.1,5.3-2.3,8-3.4c0.5-0.2,1.2-0.1,1.7-0.2C94.7,4,95,4.7,94.8,5.2c-0.6,1.4-1.2,2.8-2,4.1c-0.8,1.3-1.8,2.4-2.9,3.9
	c2.1-0.7,3.9-1.4,5.7-2c0.4-0.1,0.9-0.3,1.3-0.2c0.8,0.1,1.1,1.1,0.3,2c-2.4,2.7-4.7,5.5-7.3,8c-1.4,1.3-2,2.7-2.1,4.6
	c-0.3,13.9-5.1,26.2-14.1,36.8c-8.3,9.8-18.9,15.7-31.5,18C28.7,82.7,15.7,80.8,3.5,74c-0.6-0.3-1.2-0.9-1.4-1.5
	c-0.4-1,0.5-1.8,1.7-1.8c5.4,0.1,10.6-0.6,15.6-2.6c2.6-1,5.1-2.4,7.6-3.8c-6.3-1.5-11.2-4.8-14.4-10.4c-0.6-1.1-1.1-2.3-1.6-3.5
	c-0.4-1.2,0.2-1.9,1.5-1.7c0.9,0.1,1.9,0.2,3.1,0.4c-1.5-1-2.7-1.7-3.8-2.6c-4.2-3.3-6.7-7.7-7.6-13c-0.2-1-0.3-2.1-0.3-3.2
	c0-1.2,0.8-1.7,1.9-1.2c1.2,0.5,2.4,0.9,3.6,1.4c0.1,0,0.2,0,0.3,0.1C9.8,30.5,9.8,30.4,9.7,30.4L9.7,30.4z"/>
<path class="st0" d="M9.7,30.4c0.1,0.1,0.1,0.2,0.1,0.3c-0.1,0-0.2,0-0.3-0.1C9.6,30.5,9.7,30.5,9.7,30.4z"/>
</svg>
