<?xml version="1.0" encoding="utf-8"?>
<!-- Generator: Adobe Illustrator 27.2.0, SVG Export Plug-In . SVG Version: 6.00 Build 0)  -->
<svg version="1.1" id="Layer_1" xmlns="http://www.w3.org/2000/svg" xmlns:xlink="http://www.w3.org/1999/xlink" x="0px" y="0px"
	 viewBox="0 0 99.7 83" style="enable-background:new 0 0 99.7 83;" xml:space="preserve">
<path d="M24.1,34.4c0.1,0.1,0.1,0.1,0.1,0.2c-0.1,0-0.1,0-0.2-0.1C24.1,34.5,24.1,34.5,24.1,34.4z"/>
<g id="layer1">
	<path id="path877_00000181064236803813582920000013671792740407415986_" d="M49.8,18.6c3.1,0,6.1,0.6,8.9,1.8
		c2.8,1.2,5.2,2.8,7.3,4.9c2.1,2.1,3.8,4.5,4.9,7.3c1.2,2.8,1.8,5.8,1.8,8.9s-0.6,6.1-1.8,8.9c-1.2,2.8-2.8,5.2-4.9,7.3
		s-4.5,3.8-7.3,4.9c-2.8,1.2-5.8,1.8-8.9,1.8s-6.1-0.6-8.9-1.8c-2.8-1.2-5.2-2.8-7.3-4.9c-2.1-2.1-3.8-4.5-4.9-7.3
		c-1.2-2.8-1.8-5.8-1.8-8.9s0.6-6.1,1.8-8.9c1.2-2.8,2.8-5.2,4.9-7.3s4.5-3.8,7.3-4.9C43.7,19.2,46.7,18.6,49.8,18.6 M49.8,15.2
		c-14.5,0-26.3,11.8-26.3,26.3s11.8,26.3,26.3,26.3S76.1,56,76.1,41.5S64.3,15.2,49.8,15.2L49.8,15.2z"/>
	<path d="M44,55.6L44,55.6c-0.4,0-0.9-0.2-1.2-0.5L32.4,44.4c-0.6-0.6-0.6-1.7,0-2.4c0.6-0.6,1.7-0.6,2.4,0l9.2,9.5l20.5-20.3
		c0.6-0.6,1.7-0.6,2.4,0c0.6,0.6,0.6,1.7,0,2.4L45.1,55.1C44.8,55.4,44.4,55.6,44,55.6z"/>
</g>
</svg>
