<?xml version="1.0" encoding="utf-8"?>
<!-- Generator: Adobe Illustrator 27.2.0, SVG Export Plug-In . SVG Version: 6.00 Build 0)  -->
<svg version="1.1" id="Layer_1" xmlns="http://www.w3.org/2000/svg" xmlns:xlink="http://www.w3.org/1999/xlink" x="0px" y="0px"
	 viewBox="0 0 59.7 59.6" style="enable-background:new 0 0 59.7 59.6;" xml:space="preserve">
<style type="text/css">
	.st0{fill:#FFFFFF;}
</style>
<g>
	<g>
		<path d="M50.7,8.4c5.9,5.8,9,12.9,8.9,22.3c0.5,14.4-12.5,28.6-29.1,28.9C13.4,59.9,0.2,46.3,0,30.3C-0.3,13.2,13.5-0.2,29.9-0.1
			C37.9-0.1,44.9,2.8,50.7,8.4z"/>
		<path class="st0" d="M29.9,31.6c-2.4-2.4-4.7-4.7-6.9-7c-1.6-1.6-3.2-3.2-4.9-4.9c-0.8-0.7-1.4-0.7-2.2,0
			c-1.6,1.6-3.1,3.1-4.7,4.7c-0.7,0.7-0.8,1.4,0,2.2c2.3,2.3,4.5,4.5,6.8,6.8c3.6,3.6,7.2,7.2,10.7,10.7c0.7,0.7,1.4,0.7,2.1,0
			c6-5.8,11.8-11.7,17.7-17.5c0.7-0.7,0.7-1.4,0-2.1c-1.6-1.6-3.1-3.1-4.7-4.7c-0.8-0.8-1.4-0.8-2.2,0c-3.8,3.8-7.5,7.5-11.3,11.3
			C30.1,31.3,30.1,31.4,29.9,31.6z"/>
	</g>
</g>
</svg>
