<?xml version="1.0" encoding="utf-8"?>
<!-- Generator: Adobe Illustrator 27.2.0, SVG Export Plug-In . SVG Version: 6.00 Build 0)  -->
<svg version="1.1" id="Layer_1" xmlns="http://www.w3.org/2000/svg" xmlns:xlink="http://www.w3.org/1999/xlink" x="0px" y="0px"
	 viewBox="0 0 83 83" style="enable-background:new 0 0 83 83;" xml:space="preserve">
<path d="M34.1,67C16,67,1.3,52.2,1.3,34.1S16,1.3,34.1,1.3S67,16,67,34.1S52.3,67,34.1,67L34.1,67z M34.1,8
	C19.8,8,8.1,19.7,8.1,34.1s11.7,26.1,26.1,26.1s26.1-11.7,26.1-26.1S48.5,8,34.1,8z"/>
<path d="M78.3,81.7c-0.8,0-1.7-0.3-2.4-1L52.3,57.6c-1.3-1.3-1.4-3.5,0-4.8s3.5-1.4,4.8,0l23.7,23.1c1.3,1.3,1.4,3.4,0.1,4.8
	C80.1,81.4,79.2,81.7,78.3,81.7z"/>
</svg>
