<?xml version="1.0" encoding="utf-8"?>
<!-- Generator: Adobe Illustrator 27.2.0, SVG Export Plug-In . SVG Version: 6.00 Build 0)  -->
<svg version="1.1" id="Layer_1" xmlns="http://www.w3.org/2000/svg" xmlns:xlink="http://www.w3.org/1999/xlink" x="0px" y="0px"
	 viewBox="0 0 59.7 59.6" style="enable-background:new 0 0 59.7 59.6;" xml:space="preserve">
<style type="text/css">
	.st0{fill:#F16154;}
	.st1{fill:#FFFFFF;}
</style>
<g>
	<g>
		<path class="st0" d="M8.5,8.9C14.3,3,21.4-0.1,30.8,0c14.4-0.5,28.6,12.5,28.9,29.1C60,46.2,46.4,59.4,30.4,59.6
			C13.3,59.9-0.1,46.1,0,29.7C0,21.7,2.9,14.7,8.5,8.9z"/>
		<path class="st1" d="M31.7,29.7c-2.4,2.4-4.7,4.7-7,6.9c-1.6,1.6-3.2,3.2-4.9,4.9c-0.7,0.8-0.7,1.4,0,2.2c1.6,1.6,3.1,3.1,4.7,4.7
			c0.7,0.7,1.4,0.8,2.2,0c2.3-2.3,4.5-4.5,6.8-6.8c3.6-3.6,7.2-7.2,10.7-10.7c0.7-0.7,0.7-1.4,0-2.1C38.4,22.8,32.5,17,26.7,11.1
			c-0.7-0.7-1.4-0.7-2.1,0c-1.6,1.6-3.1,3.1-4.7,4.7c-0.8,0.8-0.8,1.4,0,2.2c3.8,3.8,7.5,7.5,11.3,11.3
			C31.4,29.5,31.5,29.5,31.7,29.7z"/>
	</g>
</g>
</svg>
