<?xml version="1.0" encoding="utf-8"?>
<!-- Generator: Adobe Illustrator 27.2.0, SVG Export Plug-In . SVG Version: 6.00 Build 0)  -->
<svg version="1.1" id="Layer_1" xmlns="http://www.w3.org/2000/svg" xmlns:xlink="http://www.w3.org/1999/xlink" x="0px" y="0px"
	 viewBox="0 0 85.6 83" style="enable-background:new 0 0 85.6 83;" xml:space="preserve">
<path d="M76.1,81.6H9.4c-4.4,0-8-3.6-8-8V26.8c0-4.4,3.6-8,8-8h66.7c4.4,0,8,3.6,8,8v46.8C84.1,78,80.5,81.6,76.1,81.6z M9.4,25.6
	c-0.7,0-1.2,0.5-1.2,1.2v46.8c0,0.7,0.6,1.2,1.2,1.2h66.7c0.7,0,1.2-0.6,1.2-1.2V26.8c0-0.7-0.6-1.2-1.2-1.2H9.4z"/>
<path d="M66.4,25.6H19.1V6.9c0-3,2.5-5.5,5.5-5.5h36.3c3,0,5.5,2.5,5.5,5.5L66.4,25.6L66.4,25.6z M25.9,18.8h33.7V8.2H25.9V18.8z
	 M60.9,8.2L60.9,8.2z"/>
</svg>
