<?xml version="1.0" encoding="utf-8"?>
<!-- Generator: Adobe Illustrator 27.2.0, SVG Export Plug-In . SVG Version: 6.00 Build 0)  -->
<svg version="1.1" id="Layer_1" xmlns="http://www.w3.org/2000/svg" xmlns:xlink="http://www.w3.org/1999/xlink" x="0px" y="0px"
	 viewBox="0 0 59.7 59.6" style="enable-background:new 0 0 59.7 59.6;" xml:space="preserve">
<style type="text/css">
	.st0{fill:#F16154;}
	.st1{fill:#FFFFFF;}
</style>
<g>
	<g>
		<path class="st0" d="M51.2,8.9C45.4,3,38.3-0.1,28.9,0C14.4-0.5,0.3,12.5,0,29.1c-0.3,17.1,13.3,30.2,29.3,30.5
			c17.1,0.3,30.5-13.5,30.4-29.9C59.7,21.7,56.8,14.7,51.2,8.9z"/>
		<path class="st1" d="M27.9,29.7c2.4,2.4,4.7,4.7,7,6.9c1.6,1.6,3.2,3.2,4.9,4.9c0.7,0.8,0.7,1.4,0,2.2c-1.6,1.6-3.1,3.1-4.7,4.7
			c-0.7,0.7-1.4,0.8-2.2,0c-2.3-2.3-4.5-4.5-6.8-6.8C22.6,38,19,34.4,15.4,30.8c-0.7-0.7-0.7-1.4,0-2.1C21.3,22.8,27.2,17,33,11.1
			c0.7-0.7,1.4-0.7,2.1,0c1.6,1.6,3.1,3.1,4.7,4.7c0.8,0.8,0.8,1.4,0,2.2c-3.8,3.8-7.5,7.5-11.3,11.3C28.3,29.5,28.2,29.5,27.9,29.7
			z"/>
	</g>
</g>
</svg>
