<?xml version="1.0" encoding="utf-8"?>
<!-- Generator: Adobe Illustrator 27.2.0, SVG Export Plug-In . SVG Version: 6.00 Build 0)  -->
<svg version="1.1" id="Layer_1" xmlns="http://www.w3.org/2000/svg" xmlns:xlink="http://www.w3.org/1999/xlink" x="0px" y="0px"
	 viewBox="0 0 83 83" style="enable-background:new 0 0 83 83;" xml:space="preserve">
<path d="M41.5,50.5c-10.8,0-19.6-8.8-19.6-19.6s8.8-19.6,19.6-19.6S61.1,20.2,61.1,31S52.3,50.5,41.5,50.5L41.5,50.5z M41.5,18.2
	c-7,0-12.7,5.7-12.7,12.7s5.7,12.7,12.7,12.7S54.2,38,54.2,31S48.5,18.2,41.5,18.2z"/>
<g>
	<path d="M62.8,76.7l-0.5-6.8C61.5,59,52.4,50.5,41.5,50.5s-20,8.5-20.8,19.3l-0.5,6.8l-5.2-4.5C6.1,64.5,1,53.3,1,41.5
		C1,19.1,19.1,1,41.5,1S82,19.1,82,41.5c0,11.8-5.1,23-14.1,30.7L62.8,76.7L62.8,76.7z M41.5,43.7c12.1,0,22.6,7.9,26.3,18.9
		c4.8-5.9,7.4-13.3,7.4-21.1c0-18.6-15.1-33.7-33.7-33.7S7.8,22.9,7.8,41.5c0,7.7,2.7,15.1,7.4,21.1C18.9,51.6,29.4,43.7,41.5,43.7
		L41.5,43.7z"/>
	<path d="M41.5,82c-9.7,0-19.1-3.5-26.4-9.8l-1.3-1.1l0.1-1.7C14.9,55,27,43.7,41.5,43.7S68.1,55,69.1,69.4l0.1,1.7L68,72.2
		C60.6,78.6,51.2,82,41.5,82L41.5,82z M20.9,68.2c5.9,4.5,13.1,7,20.6,7s14.7-2.5,20.6-7c-1.6-10-10.3-17.6-20.6-17.6
		S22.5,58.1,20.9,68.2z"/>
</g>
</svg>
