<?xml version="1.0" encoding="utf-8"?>
<!-- Generator: Adobe Illustrator 27.2.0, SVG Export Plug-In . SVG Version: 6.00 Build 0)  -->
<svg version="1.1" id="Layer_1" xmlns="http://www.w3.org/2000/svg" xmlns:xlink="http://www.w3.org/1999/xlink" x="0px" y="0px"
	 viewBox="0 0 63.1 57" style="enable-background:new 0 0 63.1 57;" xml:space="preserve">
<g>
	<path d="M9,17.1h45.2c2.1,0,3.8-1.7,3.8-3.8s-1.7-3.8-3.8-3.8H9c-2.1,0-3.8,1.7-3.8,3.8S6.8,17.1,9,17.1z"/>
	<path d="M54.1,24.7H9c-2.1,0-3.8,1.7-3.8,3.8s1.7,3.8,3.8,3.8h45.2c2.1,0,3.8-1.7,3.8-3.8S56.3,24.7,54.1,24.7z"/>
	<path d="M54.1,39.8H9c-2.1,0-3.8,1.7-3.8,3.8s1.7,3.8,3.8,3.8h45.2c2.1,0,3.8-1.7,3.8-3.8S56.3,39.8,54.1,39.8z"/>
</g>
</svg>
