<?xml version="1.0" encoding="utf-8"?>
<!-- Generator: Adobe Illustrator 27.2.0, SVG Export Plug-In . SVG Version: 6.00 Build 0)  -->
<svg version="1.1" id="Layer_1" xmlns="http://www.w3.org/2000/svg" xmlns:xlink="http://www.w3.org/1999/xlink" x="0px" y="0px"
	 viewBox="0 0 99.7 83" style="enable-background:new 0 0 99.7 83;" xml:space="preserve">
<path d="M10.1,30.5c0.1,0.1,0.1,0.2,0.1,0.3c-0.1,0-0.2,0-0.3-0.1C10,30.6,10.1,30.6,10.1,30.5z"/>
<g>
	<path d="M9.1,44.2c0-13.7,3.9-23.1,11.5-30.9C27.9,5.9,36.7,1.5,47.2,0.8C59.3,0,69.7,4.2,78.3,12.6c7.2,7.1,11.5,15.8,12.1,26
		c0.8,12-3.2,22.4-11.5,31c-7.6,8-17,12.3-28.1,12.6C43.4,82.4,36.4,80.6,30,77c-6.4-3.7-11.6-8.6-15.3-14.9
		C11,55.8,9.1,48.9,9.1,44.2z M42.9,63.2c3.3,0,6.5,0,9.8,0c0-0.3,0-0.5,0-0.7c0-5.3,0-10.7,0-15.9c0-1.8,0.7-3.2,2-4.4
		c2.7-2.4,6.7-1.3,7.8,2.1c0.3,1,0.4,2.2,0.5,3.3c0,5,0,10,0,15c0,0.2,0,0.4,0,0.7c3.3,0,6.5,0,9.7,0c0-0.3,0-0.5,0-0.7
		c0-5.4,0-10.9,0-16.3c0-1.5-0.2-3.1-0.6-4.6c-0.8-3.3-2.5-5.7-5.6-7.2c-1.8-0.8-3.7-1.1-5.6-1c-2.9,0.1-5.2,1.2-7.1,3.4
		c-0.3,0.4-0.6,0.8-0.9,1.2h-0.1c0-1.3,0-2.6,0-3.8c-3.3,0-6.5,0-9.7,0C42.9,43.7,42.9,53.4,42.9,63.2z M37.5,63.2
		c0-9.8,0-19.5,0-29.2c-0.2,0-0.4,0-0.6,0c-2.9,0-5.6,0-8.5,0c-0.6,0-0.7,0.2-0.7,0.7c0,9.3,0,18.6,0,27.9c0,0.2,0,0.4,0,0.6
		C31.1,63.2,34.3,63.2,37.5,63.2z M32.7,19.7c-0.5,0.1-0.9,0.1-1.4,0.2c-2.3,0.5-3.8,1.9-4.2,4.3c-0.2,1.4,0.4,3.7,2.1,4.8
		c1.4,0.9,2.9,1.2,4.6,0.9c3-0.4,5-3.2,4.3-6.1C37.4,21.3,35.5,19.8,32.7,19.7z"/>
</g>
</svg>
