<?xml version="1.0" encoding="utf-8"?>
<!-- Generator: Adobe Illustrator 27.2.0, SVG Export Plug-In . SVG Version: 6.00 Build 0)  -->
<svg version="1.1" id="Layer_1" xmlns="http://www.w3.org/2000/svg" xmlns:xlink="http://www.w3.org/1999/xlink" x="0px" y="0px"
	 viewBox="0 0 83 83" style="enable-background:new 0 0 83 83;" xml:space="preserve">
<path d="M1.5,21.5c0.7-2.4,1.1-5,2.2-7.3C7.4,6.5,13.7,1.9,22.4,1.7c12.7-0.3,25.4-0.2,38.1,0c9.6,0.1,18.1,7.3,20.2,16.6
	c0.4,2,0.7,4,0.7,6c0.1,11.5,0.1,23,0,34.4c0,10.1-5.7,18.5-14.8,21.5c-2.3,0.8-4.9,1.2-7.4,1.2c-12.2,0.1-24.4,0.1-36.6,0
	C12,81.3,2.8,72.7,1.6,62.1c0-0.3-0.1-0.5-0.2-0.8C1.4,48.1,1.4,34.8,1.5,21.5L1.5,21.5z M22.7,8.8c-0.3,0-0.5,0-0.8,0
	C14.1,9.8,8.6,16,8.6,23.9c0,11.7,0,23.4,0,35.1c0,8.7,6.5,15.3,15.2,15.4c11.7,0.1,23.5,0,35.2,0c2.2,0,4.3-0.3,6.3-1.3
	c6.2-2.9,9-8,9-14.7c0-11.2,0-22.4,0-33.6c0-1.4-0.1-2.9-0.4-4.3c-1.2-6.4-7.6-11.8-13.7-11.7c-4.1,0-8.2,0-12.4,0
	C39.5,8.7,31.1,8.7,22.7,8.8L22.7,8.8z"/>
<path d="M60.2,8.8c-0.4,0.1-0.8,0.2-1.2,0.2c-11.7,0-23.4,0-35.1,0c-0.4,0-0.8-0.1-1.2-0.2c8.4,0,16.8,0,25.1,0
	C52,8.7,56.1,8.8,60.2,8.8z"/>
<path d="M41.4,62.1c-11,0.3-20.7-9.2-20.6-20.8c0.1-10.6,8.5-19.4,18.4-20.2c6.5-0.5,12.2,1.2,16.8,5.8c4,4,6,8.9,6,14.6
	C62.1,53.5,52,62.4,41.4,62.1L41.4,62.1z M41.5,28.1C34.1,28.1,28,34,28,41.3c0,7.6,5.9,13.6,13.5,13.7c7.4,0,13.5-6,13.5-13.4
	C55,34.2,49,28.1,41.5,28.1z"/>
<path d="M63,14.9c2.8,0,5.2,2.3,5.2,5.2c0,2.9-2.5,5.5-5.5,5.4c-2.7-0.1-5-2.4-5-5.4C57.7,17.2,60.1,14.9,63,14.9z"/>
</svg>
