<?xml version="1.0" encoding="utf-8"?>
<!-- Generator: Adobe Illustrator 27.2.0, SVG Export Plug-In . SVG Version: 6.00 Build 0)  -->
<svg version="1.1" id="Layer_1" xmlns="http://www.w3.org/2000/svg" xmlns:xlink="http://www.w3.org/1999/xlink" x="0px" y="0px"
	 viewBox="0 0 340.6 80.4" style="enable-background:new 0 0 340.6 80.4;" xml:space="preserve">
<style type="text/css">
	.st0{fill:#FFFFFF;}
</style>
<g>
	<path class="st0" d="M15.2,39.6c0-1.3-0.4-2.3-1.3-3c-0.9-0.6-1.8-1-2.9-1H9.5V22.8h24.9V62c0,3.3-0.4,6-1.2,8.3s-2,4.1-3.6,5.5
		s-3.6,2.4-5.9,3s-5.1,0.9-8.2,0.9c-2.8,0-5.2-0.3-7.2-0.8c-2-0.6-3.6-1.3-4.8-2.2c-1.2-0.9-2.1-2-2.6-3.2C0.3,72.2,0,70.9,0,69.6
		c0-2,0.6-3.7,1.9-5.1c1.2-1.4,3.1-2.1,5.5-2.1c1.1,0,2,0.2,2.9,0.6c0.8,0.4,1.5,0.9,2,1.4c0.5,0.6,0.9,1.2,1.2,1.9
		c0.3,0.7,0.4,1.4,0.4,2.1c0,1.2-0.2,2.2-0.6,2.8c-0.4,0.7-0.8,1.3-1.3,1.8l0.5,0.6c1.1-0.7,1.9-1.6,2.2-2.7c0.3-1,0.5-2.2,0.5-3.4
		C15.2,67.5,15.2,39.6,15.2,39.6z M14.6,14.3c0-2,0.8-3.7,2.3-5.1s3.7-2.1,6.5-2.1s5,0.7,6.6,2.1c1.5,1.4,2.3,3.1,2.3,5.1
		S31.5,18,30,19.4s-3.7,2.1-6.6,2.1c-2.8,0-4.9-0.7-6.5-2.1S14.6,16.3,14.6,14.3z"/>
	<path class="st0" d="M89.6,45.4c0,1.1,0.3,1.8,1,2.2c0.6,0.4,1.4,0.6,2.2,0.6h1.8V61H73.9v-9.5h-0.6c-0.5,3.5-2,6.2-4.3,8
		s-5.8,2.7-10.3,2.7c-3.2,0-5.7-0.5-7.7-1.4s-3.5-2-4.6-3.4s-1.8-2.9-2.2-4.5s-0.6-3.1-0.6-4.5V39c0-1.2-0.2-2.1-0.6-2.6
		s-1.3-0.8-2.5-0.8h-2.1V22.8h24.2v21.9c0,0.9,0.1,1.6,0.3,2.2c0.2,0.5,0.5,1,0.8,1.2c0.3,0.3,0.7,0.5,1.1,0.6s0.8,0.1,1.2,0.1
		c1.5,0,2.6-0.4,3.4-1.3c0.7-0.9,1.1-2.1,1.1-3.7V39c0-1.2-0.2-2.1-0.6-2.6s-1.3-0.8-2.5-0.8h-2V22.8h24.2
		C89.6,22.8,89.6,45.4,89.6,45.4z"/>
	<path class="st0" d="M130.7,38.8c0-0.9-0.1-1.6-0.3-2.2c-0.2-0.5-0.5-1-0.8-1.2c-0.3-0.3-0.7-0.5-1.1-0.6c-0.4-0.1-0.8-0.1-1.2-0.1
		c-1.5,0-2.6,0.4-3.4,1.3c-0.7,0.9-1.1,2.1-1.1,3.7v5c0,1.2,0.2,2.1,0.6,2.6s1.3,0.8,2.5,0.8h1.9V61h-29V48.1h2
		c0.9,0,1.7-0.3,2.2-0.9c0.5-0.6,0.7-1.3,0.7-2.2v-6.6c0-1.1-0.3-1.8-1-2.2c-0.6-0.4-1.4-0.6-2.2-0.6h-1.8V22.8h20.6l-0.7,9.5h0.6
		c0.5-3.6,2.1-6.3,4.7-8.2c2.6-1.9,6.2-2.9,10.6-2.9c3.2,0,5.7,0.5,7.7,1.4s3.5,2,4.6,3.4s1.8,2.9,2.2,4.5s0.6,3.1,0.6,4.5v9.7
		c0,1.2,0.2,2.1,0.6,2.6c0.4,0.5,1.3,0.8,2.5,0.8h1.9V61h-24V38.8H130.7z"/>
	<path class="st0" d="M182.4,22.8v21.6c0,1.5,0.4,2.6,1.1,3c0.8,0.5,1.7,0.7,2.9,0.7h0.9V61h-29.2V48.1h1.4c1.2,0,2.1-0.4,2.7-1.2
		c0.6-0.8,0.9-1.6,0.9-2.5v-4.9c0-1.3-0.4-2.3-1.3-3c-0.8-0.6-1.8-1-2.9-1h-0.8V22.8H182.4z M162.6,14.3c0-2,0.8-3.7,2.3-5.1
		s3.7-2.1,6.5-2.1s5,0.7,6.6,2.1c1.5,1.4,2.3,3.1,2.3,5.1s-0.8,3.7-2.3,5.1s-3.7,2.1-6.6,2.1c-2.8,0-4.9-0.7-6.5-2.1
		C163.4,18,162.6,16.3,162.6,14.3z"/>
	<path class="st0" d="M226.2,62.1c-1.5,0-2.8-0.1-3.9-0.2c-1.2-0.2-2.2-0.4-3.2-0.6c-0.9-0.3-1.8-0.6-2.7-1s-1.7-0.8-2.6-1.2v3.4
		c0,1.2,0.2,2.1,0.6,2.6c0.4,0.5,1.3,0.8,2.5,0.8h2v12.8h-29.2V65.9h2.1c0.9,0,1.7-0.3,2.2-0.9s0.7-1.3,0.7-2.2V38.4
		c0-1.1-0.3-1.8-1-2.2c-0.6-0.4-1.4-0.6-2.2-0.6h-1.8V22.8h22.5v7.1h0.6c0.9-2.4,2.4-4.4,4.5-6c2.2-1.6,5.1-2.4,8.9-2.4
		c5.4,0,9.7,1.7,12.7,5.1c3.1,3.4,4.6,8.5,4.6,15.1s-1.6,11.7-4.7,15.1S231.6,62.1,226.2,62.1z M223.9,42.2c0-1.2-0.1-2.4-0.2-3.5
		s-0.4-2.1-0.8-2.9s-0.9-1.5-1.5-2s-1.5-0.7-2.5-0.7s-1.9,0.2-2.6,0.7c-0.7,0.5-1.2,1.1-1.6,1.9c-0.4,0.8-0.6,1.7-0.8,2.8
		s-0.2,2.2-0.2,3.5v8.5c0.4,0.6,1.1,1.1,2.2,1.4c1.1,0.4,2,0.5,2.9,0.5c1,0,1.9-0.3,2.5-0.9c0.6-0.6,1.1-1.4,1.5-2.3
		s0.6-2.1,0.8-3.3C223.9,44.6,223.9,43.4,223.9,42.2z"/>
	<path class="st0" d="M266.3,44c0.1,3.4,0.7,5.8,2,7.1c1.2,1.3,2.9,2,5.2,2c0.8,0,1.5-0.1,2.2-0.3s1.4-0.6,2-1.1s1.2-1.2,1.6-2
		c0.5-0.8,0.7-1.9,0.9-3.1h12.6c-0.5,3-1.3,5.5-2.5,7.5s-2.8,3.6-4.8,4.9s-4.2,2.1-6.8,2.7s-5.4,0.8-8.6,0.8c-3.3,0-6.3-0.4-9.2-1.2
		c-2.9-0.8-5.4-2.1-7.5-3.8c-2.2-1.7-3.8-3.8-5.1-6.4c-1.2-2.6-1.8-5.6-1.8-9.2c0-3.4,0.6-6.4,1.7-8.9c1.2-2.6,2.8-4.7,4.9-6.4
		c2.1-1.7,4.6-3,7.4-3.9c2.9-0.9,6-1.3,9.4-1.3c4.2,0,7.8,0.6,10.8,1.7s5.5,2.7,7.4,4.6c1.9,2,3.3,4.4,4.2,7.2
		c0.9,2.8,1.3,5.9,1.3,9.3h-27.3V44z M271.4,30.6c-1.6,0-2.8,0.6-3.6,1.7c-0.8,1.1-1.3,3-1.5,5.7h10.1c-0.1-2.3-0.6-4.1-1.5-5.4
		C274.2,31.3,273,30.6,271.4,30.6z"/>
	<path class="st0" d="M318.6,22.8l-0.6,9.5h0.6c0.8-3.6,2.2-6.4,4-8.3c1.9-1.9,4.3-2.8,7.3-2.8c1.8,0,3.3,0.3,4.6,0.8
		c1.3,0.6,2.3,1.3,3.1,2.3s1.4,2,1.7,3.3c0.3,1.2,0.5,2.5,0.5,3.8c0,1.1-0.2,2.2-0.5,3.2c-0.3,1.1-0.8,2-1.6,2.9
		c-0.7,0.9-1.6,1.5-2.8,2.1s-2.5,0.8-4.2,0.8c-2.3,0-4.1-0.6-5.5-1.8s-2-2.6-2-4.3c0-0.8,0.1-1.5,0.3-2.1c0.2-0.6,0.4-1,0.6-1.4
		s0.3-0.6,0.4-0.8c0.1-0.2,0-0.2-0.2-0.2c-0.5,0-1,0.6-1.6,1.7s-0.8,2.9-0.8,5.2v7.9c0,1.2,0.2,2.1,0.6,2.6s1.3,0.8,2.5,0.8h2.1v13
		H298V48.1h2c0.9,0,1.7-0.3,2.2-0.9c0.5-0.6,0.7-1.3,0.7-2.2v-6.6c0-1.1-0.3-1.8-1-2.2c-0.6-0.4-1.4-0.6-2.2-0.6H298V22.8H318.6z"/>
</g>
</svg>
